<svg width="88" height="120" viewBox="0 0 88 120" fill="none" xmlns="http://www.w3.org/2000/svg">
<path d="M72.1969 37.8938L18.5719 95.2781C18.5719 95.2781 35.6719 115.819 62.9812 114.581C81.7687 113.728 93.0375 106.725 102.262 96.1313C113.531 83.1844 116.072 64.1906 115.416 55.4813C114.562 44.2125 106.875 29.5219 100.894 25.0781C94.9125 20.6344 72.1969 37.8938 72.1969 37.8938Z" fill="#D7CCC6"/>
<path d="M23.5219 19.6219C5.74688 35.4375 -5.99999 71.3437 18.5719 95.2781C31.725 108.084 74.7563 108.731 95.25 81.9187C104.878 69.3281 112.603 49.6312 107.381 33.9656C105.328 27.8156 99.8156 23.4 94.9125 19.275C71.3438 -0.534372 45.2156 0.318753 23.5219 19.6219Z" fill="#F1EDEC"/>
<path d="M65.3156 116.334L61.6688 116.034C61.7438 115.688 69.3375 81.5625 47.1375 59.1938C37.275 49.2563 28.1906 44.6625 20.1281 45.5531C11.7281 46.4719 6.14063 54.2531 6.10313 54.3281L4.37813 50.8313C4.59375 50.4938 9.54375 42.9469 19.725 41.8312C28.9875 40.8281 39.1031 45.7781 49.8094 56.5594C73.4719 80.4188 65.6531 114.853 65.3156 116.334ZM114.375 57.0094C114.122 56.8406 89.475 39.3937 76.7531 28.5375C65.3156 18.7875 50.1563 5.16563 50.0156 5.025L52.65 3.375C52.7906 3.50625 67.3875 16.4531 78.7875 26.175C91.3969 36.9281 115.031 53.8688 115.284 54.0375L114.375 57.0094Z" fill="#979892"/>
<path d="M64.0781 15.2344C63.6094 15.7312 62.4 19.35 61.9313 21.3656C61.6594 22.5187 61.8281 24.3094 63.2719 24.5437C64.8844 24.8156 65.4938 23.8875 65.9906 22.5094C66.4875 21.1312 67.3688 18.6375 67.3688 18.6375C67.3688 18.6375 69.9375 17.7844 71.2031 17.4094C72.8906 16.9125 73.3875 16.2188 73.425 15.3375C73.4625 14.4563 72.5437 12.8062 69.7031 13.4625C67.95 13.875 64.7625 14.5031 64.0781 15.2344ZM55.7906 8.24062C55.3875 8.56875 53.4563 13.2656 53.1469 13.8562C52.8281 14.4469 52.6313 15.9563 53.7375 16.5938C54.8438 17.2312 56.0531 16.1344 56.475 15.1969C56.8875 14.2594 58.0969 11.475 58.0969 11.475C58.0969 11.475 61.05 11.3156 62.1094 11.1656C63.4031 10.9875 64.3875 10.6312 64.3125 9.14062C64.2375 7.65 61.8281 7.7625 59.3438 7.92187C57.7781 8.01562 56.0625 8.01562 55.7906 8.24062ZM50.0063 2.82188C49.3313 3.13125 46.7063 5.8125 46.3594 6.27188C46.0125 6.73125 45.75 7.725 46.6313 8.41875C47.5125 9.1125 48.7406 8.53125 49.3875 8.07187C50.0438 7.6125 51.2625 6.1125 51.2625 6.1125C51.2625 6.1125 53.7938 6.15 54.525 6.1875C55.2563 6.225 56.2125 5.65313 56.2125 4.5C56.2125 3.34688 54.8719 2.8875 53.7563 2.85C52.65 2.82188 50.4281 2.625 50.0063 2.82188ZM74.6813 24.0562C74.0625 24.5437 72.5437 29.9906 72.225 31.0875C71.9062 32.1844 71.3906 34.5281 73.0125 35.0344C74.7188 35.5687 75.8625 34.8094 76.3688 32.8781C76.8375 31.0969 77.9062 27.375 77.9062 27.375C77.9062 27.375 82.0031 25.8656 82.9031 25.5187C83.8031 25.1719 84.8438 24.0281 84.2156 22.6219C83.5875 21.2156 81.7969 21.3937 80.9156 21.7125C80.925 21.7219 75.2812 23.5875 74.6813 24.0562ZM85.2562 33.1312C84.825 33.6937 83.3812 38.7281 83.1469 39.7687C82.9125 40.8 82.9219 42.45 84.5625 42.8719C85.9031 43.2187 86.9812 42.525 87.2812 41.2594C87.7875 39.1594 88.8937 36.1219 88.8937 36.1219C88.8937 36.1219 91.8094 34.4719 92.9156 33.9C94.0312 33.3281 94.5281 31.7531 93.8344 30.6375C93.1406 29.5219 91.575 29.6812 90.0375 30.2156C88.5094 30.7594 85.6406 32.6344 85.2562 33.1312ZM95.7469 41.0437C95.2031 41.8594 95.0531 46.6781 95.0531 47.4094C95.0531 48.1406 95.5875 50.0531 97.3125 50.0531C98.85 50.0531 99.4969 48.4031 99.4969 47.5594C99.4969 46.7156 99.6844 43.4531 99.6844 43.4531C99.6844 43.4531 101.662 42.4031 102.366 41.9156C103.322 41.2594 104.4 40.0406 103.706 38.7375C103.012 37.4344 101.175 37.8187 99.9844 38.3156C99.15 38.6812 96.1312 40.4719 95.7469 41.0437ZM105.347 48.8344C105.009 49.65 104.991 54.1969 105.066 55.425C105.141 56.6531 106.181 57.7219 107.522 57.6844C108.863 57.6469 109.481 56.3812 109.434 55.3875C109.387 54.3937 109.509 51.1312 109.509 51.1312C109.509 51.1312 111.291 49.8937 111.769 49.5562C112.5 49.0594 112.65 47.8687 112.003 46.95C111.347 46.0312 110.006 45.7594 108.741 46.4906C107.475 47.2219 105.478 48.5062 105.347 48.8344ZM112.462 53.925C111.853 54.975 112.425 59.7562 112.425 60.2156C112.425 60.675 112.575 62.25 114.15 62.25C115.528 62.25 115.987 61.4062 116.025 60.6375C116.062 59.8687 115.95 55.5375 115.95 55.5375C115.95 55.5375 117.291 55.1156 116.719 53.3531C116.147 51.6 113.1 52.8375 112.462 53.925ZM58.725 113.822C58.2 114.75 58.3125 115.969 60.2906 116.962C62.2781 117.956 62.6813 118.012 63.1031 118.041C63.8438 118.078 65.5406 117.506 66.6562 116.887C67.5469 116.391 68.6437 115.65 67.8562 114.206C67.125 112.856 63.15 114.45 63.15 114.45C63.15 114.45 59.6344 112.219 58.725 113.822ZM58.4719 105.356C57.375 106.369 58.0969 107.878 60.3281 109.322C62.3156 110.606 63.4313 111.553 64.2938 111.553C65.1563 111.553 68.4094 109.912 69.2531 109.444C70.5375 108.741 70.95 107.334 69.9563 106.341C68.9625 105.347 67.5563 106.378 66.8531 106.753C66.15 107.128 64.5375 107.906 64.5375 107.906C64.5375 107.906 62.4281 106.378 61.725 105.881C61.0219 105.384 59.55 104.362 58.4719 105.356ZM57.4031 94.9687C56.5031 96.3187 57.0281 97.7344 59.175 98.9344C61.3219 100.134 64.0125 101.203 64.875 101.334C65.7375 101.466 69.1313 98.5219 69.7875 97.9031C70.4438 97.2844 72.2625 95.3437 71.1094 94.0219C69.7312 92.4469 68.2594 93.6469 66.9375 94.5562C65.925 95.25 64.7437 96.1219 64.7437 96.1219C64.7437 96.1219 62.475 95.5031 61.1531 94.8844C59.8406 94.2656 58.2281 93.7312 57.4031 94.9687ZM62.7563 83.9531C62.7563 83.9531 65.1094 81.5156 65.9812 80.6906C66.8531 79.8656 68.3344 79.0406 69.45 80.3625C70.5656 81.6844 69.4125 83.6719 68.3719 84.6187C67.3312 85.5656 64.6969 88.6687 63.9469 88.7906C63.1969 88.9125 57.7125 87.9187 56.1375 87.0937C55.2094 86.6062 53.7375 85.6875 54.5719 83.8312C55.2563 82.2937 56.8031 82.4719 57.9563 82.7156C59.1094 82.9594 62.7563 83.9531 62.7563 83.9531ZM57.15 70.6969C57.15 70.6969 59.1375 66.6469 59.7938 65.2031C60.4594 63.7594 61.2844 62.4375 63.1406 63.0937C64.9969 63.75 64.4344 65.5031 63.8062 67.1812C63.0656 69.1687 60.9938 74.4094 60.0844 74.8687C58.9781 75.4219 53.1469 75.6094 51.1219 75.5719C50.2125 75.5531 49.1813 74.9062 49.2188 73.6687C49.2563 72.4312 50.025 71.5687 52.0313 71.2312C53.2688 71.025 57.15 70.6969 57.15 70.6969ZM47.9813 57.3094C47.775 57.4312 43.5094 59.1469 42.4406 59.4562C40.875 59.9062 40.3313 61.4812 40.6688 62.5969C41.0063 63.7125 42.525 64.2937 44.3063 63.75C46.0781 63.2156 51.45 61.8469 51.9469 61.0687C52.4438 60.2906 53.2688 54.75 53.4375 53.3062C53.6063 51.8625 53.6438 50.0437 51.7406 49.7531C49.8375 49.4625 49.0594 50.7469 48.8906 52.1062C48.7875 52.9406 47.9813 57.3094 47.9813 57.3094ZM36.4875 48.0375C36.4875 48.0375 36.8156 44.2781 36.9375 43.1625C37.0594 42.0469 37.4719 40.5562 39.4125 40.6875C41.3531 40.8187 41.1469 43.3312 41.1469 44.9437C41.1469 46.5562 40.7719 50.7656 40.5281 50.9719C40.2844 51.1781 37.6781 53.2031 36.3188 54.1125C34.9594 55.0219 32.7656 55.6312 31.9406 54.3937C31.1156 53.1562 32.3156 51.225 33.6375 50.2312C34.9594 49.2375 36.4875 48.0375 36.4875 48.0375ZM24.6094 35.3906C22.6969 35.8687 22.7906 37.8656 23.3719 39.8906C23.9531 41.9156 24.2813 43.5656 24.2813 43.5656C24.2813 43.5656 22.9219 45.675 22.3406 46.4156C21.7594 47.1562 19.9406 49.35 21.8438 50.9156C23.7469 52.4812 25.6031 49.7156 26.3063 48.8906C26.9906 48.0937 29.2406 45.0937 29.2406 44.6812C29.2406 43.4812 28.0031 39.0656 27.7125 38.1094C27.4219 37.1531 26.7563 34.8562 24.6094 35.3906ZM10.8844 38.55C10.0313 39.1312 9.60001 40.9031 10.6781 42.4312C11.5594 43.6875 12.2063 44.9906 12.2063 44.9906C12.2063 44.9906 11.0531 48.3375 10.5938 49.4156C10.1344 50.4937 9.60001 52.8469 11.5031 53.5875C13.4063 54.3281 14.7281 52.2656 15.225 50.7375C15.7219 49.2094 17.0438 45.7781 17.0813 44.7469C17.1094 44.0625 15.3094 40.6969 14.5219 39.5437C13.7344 38.3906 12.1688 37.6875 10.8844 38.55ZM7.74376 50.325C7.95938 51.3094 7.41563 54.0844 6.87188 56.4375C6.71251 57.1312 6.47813 58.6875 4.51876 58.2094C2.82188 57.7969 3.52501 55.65 3.73126 54.5719C3.85313 53.9344 4.35001 51.8906 4.35001 51.8906C4.35001 51.8906 3.45001 51.4031 3.47813 50.3625C3.51563 49.0031 4.21876 48.5437 5.33438 48.4594C6.45001 48.375 7.57501 49.5844 7.74376 50.325Z" fill="#ED520A"/>
</svg>
