<svg width="239" height="51" viewBox="0 0 239 51" fill="none" xmlns="http://www.w3.org/2000/svg">
<path d="M26.4027 27.448C26.7627 27.304 27.0627 27.232 27.3027 27.232C27.6867 27.232 27.9747 27.376 28.1667 27.664C28.3587 27.952 28.4547 28.324 28.4547 28.78C28.4547 29.5 28.2747 30.112 27.9147 30.616C27.5787 31.12 26.9907 31.576 26.1507 31.984C24.7347 32.656 22.8987 33.196 20.6427 33.604C18.3867 33.988 16.1667 34.18 13.9827 34.18C10.9587 34.18 8.42666 33.844 6.38666 33.172C4.34666 32.476 2.82266 31.528 1.81466 30.328C0.830656 29.128 0.338656 27.772 0.338656 26.26C0.338656 24.196 0.998656 22.444 2.31866 21.004C3.66266 19.54 5.63066 18.484 8.22266 17.836C6.80666 17.428 5.71466 16.708 4.94666 15.676C4.20266 14.644 3.83066 13.492 3.83066 12.22C3.83066 10.492 4.37066 8.968 5.45066 7.648C6.55466 6.304 8.03066 5.272 9.87866 4.552C11.7267 3.832 13.7547 3.472 15.9627 3.472C18.9387 3.472 21.1707 4.12 22.6587 5.416C24.1467 6.688 24.8907 8.344 24.8907 10.384C24.8907 11.8 24.6267 12.952 24.0987 13.84C23.5947 14.704 22.8627 15.136 21.9027 15.136C21.2307 15.136 20.7027 14.992 20.3187 14.704C19.9347 14.392 19.7427 13.936 19.7427 13.336C19.7427 12.928 19.8027 12.484 19.9227 12.004C20.0427 11.212 20.1027 10.672 20.1027 10.384C20.1027 9.52 19.7787 8.824 19.1307 8.296C18.4827 7.744 17.4027 7.468 15.8907 7.468C13.8507 7.468 12.2187 7.9 10.9947 8.764C9.77066 9.628 9.15866 10.792 9.15866 12.256C9.15866 13.384 9.61466 14.32 10.5267 15.064C11.4627 15.784 12.9747 16.18 15.0627 16.252C15.5907 16.276 15.9627 16.396 16.1787 16.612C16.3947 16.828 16.5027 17.188 16.5027 17.692C16.5027 19.276 15.7827 20.08 14.3427 20.104C12.3507 20.152 10.6947 20.428 9.37466 20.932C8.07866 21.436 7.13066 22.084 6.53066 22.876C5.95466 23.644 5.66666 24.472 5.66666 25.36C5.66666 26.848 6.36266 27.976 7.75466 28.744C9.14666 29.488 11.3547 29.86 14.3787 29.86C16.3707 29.86 18.4707 29.632 20.6787 29.176C22.9107 28.696 24.8187 28.12 26.4027 27.448ZM41.6863 25.972C41.9983 25.972 42.2383 26.116 42.4063 26.404C42.5983 26.692 42.6943 27.088 42.6943 27.592C42.6943 28.552 42.4663 29.296 42.0103 29.824C40.9783 31.096 39.8503 32.14 38.6263 32.956C37.4023 33.772 35.9983 34.18 34.4143 34.18C29.5183 34.18 27.0703 30.736 27.0703 23.848C27.0703 22.792 27.1063 21.724 27.1783 20.644H25.7743C25.0543 20.644 24.5623 20.512 24.2983 20.248C24.0583 19.984 23.9383 19.564 23.9383 18.988C23.9383 17.644 24.4783 16.972 25.5583 16.972H27.6103C28.0183 14.332 28.6423 11.92 29.4823 9.736C30.3223 7.552 31.3303 5.812 32.5063 4.516C33.7063 3.22 34.9903 2.572 36.3583 2.572C37.3663 2.572 38.1583 3.016 38.7343 3.904C39.3103 4.792 39.5983 5.908 39.5983 7.252C39.5983 10.972 38.0383 14.212 34.9183 16.972H38.9503C39.3343 16.972 39.6103 17.056 39.7783 17.224C39.9463 17.392 40.0303 17.704 40.0303 18.16C40.0303 19.816 38.6743 20.644 35.9623 20.644H31.5703C31.5223 21.844 31.4983 22.78 31.4983 23.452C31.4983 25.948 31.7863 27.7 32.3623 28.708C32.9623 29.716 33.8983 30.22 35.1703 30.22C36.2023 30.22 37.1143 29.908 37.9063 29.284C38.6983 28.66 39.6343 27.724 40.7143 26.476C41.0023 26.14 41.3263 25.972 41.6863 25.972ZM35.3863 6.028C35.0263 6.028 34.6183 6.484 34.1623 7.396C33.7303 8.284 33.3103 9.532 32.9023 11.14C32.5183 12.724 32.1943 14.488 31.9303 16.432C33.3463 15.208 34.4023 13.84 35.0983 12.328C35.8183 10.792 36.1783 9.4 36.1783 8.152C36.1783 6.736 35.9143 6.028 35.3863 6.028ZM55.8192 25.972C56.1312 25.972 56.3712 26.116 56.5392 26.404C56.7312 26.692 56.8272 27.088 56.8272 27.592C56.8272 28.552 56.5992 29.296 56.1432 29.824C55.2552 30.904 53.9952 31.9 52.3632 32.812C50.7552 33.724 49.0272 34.18 47.1792 34.18C44.6592 34.18 42.7032 33.496 41.3112 32.128C39.9192 30.76 39.2232 28.888 39.2232 26.512C39.2232 24.856 39.5712 23.32 40.2672 21.904C40.9632 20.464 41.9232 19.324 43.1472 18.484C44.3952 17.644 45.7992 17.224 47.3592 17.224C48.7512 17.224 49.8672 17.644 50.7072 18.484C51.5472 19.3 51.9672 20.416 51.9672 21.832C51.9672 23.488 51.3672 24.916 50.1672 26.116C48.9912 27.292 46.9872 28.228 44.1552 28.924C44.7552 30.028 45.8952 30.58 47.5752 30.58C48.6552 30.58 49.8792 30.208 51.2472 29.464C52.6392 28.696 53.8392 27.7 54.8472 26.476C55.1352 26.14 55.4592 25.972 55.8192 25.972ZM46.7472 20.752C45.8592 20.752 45.1032 21.268 44.4792 22.3C43.8792 23.332 43.5792 24.58 43.5792 26.044V26.116C44.9952 25.78 46.1112 25.276 46.9272 24.604C47.7432 23.932 48.1512 23.152 48.1512 22.264C48.1512 21.808 48.0192 21.448 47.7552 21.184C47.5152 20.896 47.1792 20.752 46.7472 20.752ZM56.452 34.18C55.54 34.18 54.892 33.7 54.508 32.74C54.148 31.78 53.968 30.244 53.968 28.132C53.968 25.012 54.412 22.048 55.3 19.24C55.516 18.544 55.864 18.04 56.344 17.728C56.848 17.392 57.544 17.224 58.432 17.224C58.912 17.224 59.248 17.284 59.44 17.404C59.632 17.524 59.728 17.752 59.728 18.088C59.728 18.472 59.548 19.336 59.188 20.68C58.948 21.64 58.756 22.48 58.612 23.2C58.468 23.92 58.348 24.808 58.252 25.864C59.044 23.8 59.932 22.12 60.916 20.824C61.9 19.528 62.86 18.604 63.796 18.052C64.756 17.5 65.632 17.224 66.424 17.224C67.984 17.224 68.764 18.004 68.764 19.564C68.764 19.876 68.656 20.632 68.44 21.832C68.248 22.792 68.152 23.392 68.152 23.632C68.152 24.472 68.452 24.892 69.052 24.892C69.724 24.892 70.588 24.364 71.644 23.308C71.956 22.996 72.28 22.84 72.616 22.84C72.928 22.84 73.168 22.984 73.336 23.272C73.528 23.536 73.624 23.896 73.624 24.352C73.624 25.24 73.384 25.936 72.904 26.44C72.232 27.136 71.44 27.736 70.528 28.24C69.64 28.72 68.692 28.96 67.684 28.96C66.412 28.96 65.44 28.636 64.768 27.988C64.12 27.34 63.796 26.464 63.796 25.36C63.796 25 63.832 24.64 63.904 24.28C63.952 23.8 63.976 23.476 63.976 23.308C63.976 22.924 63.844 22.732 63.58 22.732C63.22 22.732 62.74 23.14 62.14 23.956C61.564 24.748 60.988 25.804 60.412 27.124C59.836 28.444 59.368 29.836 59.008 31.3C58.744 32.428 58.432 33.196 58.072 33.604C57.736 33.988 57.196 34.18 56.452 34.18ZM72.8348 34.18C71.9228 34.18 71.2748 33.7 70.8908 32.74C70.5308 31.78 70.3508 30.244 70.3508 28.132C70.3508 25.012 70.7948 22.048 71.6828 19.24C71.8988 18.544 72.2468 18.04 72.7268 17.728C73.2308 17.392 73.9268 17.224 74.8148 17.224C75.2948 17.224 75.6308 17.284 75.8228 17.404C76.0148 17.524 76.1108 17.752 76.1108 18.088C76.1108 18.472 75.9308 19.336 75.5708 20.68C75.3308 21.64 75.1388 22.48 74.9948 23.2C74.8508 23.92 74.7308 24.808 74.6348 25.864C75.4268 23.8 76.3148 22.12 77.2988 20.824C78.2828 19.528 79.2428 18.604 80.1788 18.052C81.1388 17.5 82.0148 17.224 82.8068 17.224C84.3668 17.224 85.1468 18.004 85.1468 19.564C85.1468 20.5 84.8828 22.192 84.3548 24.64C83.8988 26.728 83.6708 28.108 83.6708 28.78C83.6708 29.74 84.0188 30.22 84.7148 30.22C85.1948 30.22 85.7588 29.932 86.4068 29.356C87.0788 28.756 87.9668 27.796 89.0708 26.476C89.3588 26.14 89.6828 25.972 90.0428 25.972C90.3548 25.972 90.5948 26.116 90.7628 26.404C90.9548 26.692 91.0508 27.088 91.0508 27.592C91.0508 28.552 90.8228 29.296 90.3668 29.824C89.3348 31.096 88.2188 32.14 87.0188 32.956C85.8428 33.772 84.4988 34.18 82.9868 34.18C81.7628 34.18 80.8388 33.832 80.2148 33.136C79.5908 32.416 79.2788 31.384 79.2788 30.04C79.2788 29.368 79.4468 28.168 79.7828 26.44C80.0948 24.928 80.2508 23.884 80.2508 23.308C80.2508 22.924 80.1188 22.732 79.8548 22.732C79.5428 22.732 79.0988 23.14 78.5228 23.956C77.9708 24.748 77.3948 25.804 76.7948 27.124C76.2188 28.444 75.7508 29.836 75.3908 31.3C75.1268 32.428 74.8148 33.196 74.4548 33.604C74.1188 33.988 73.5788 34.18 72.8348 34.18ZM92.5662 34.18C91.0782 34.18 89.8902 33.64 89.0022 32.56C88.1142 31.48 87.6702 30.064 87.6702 28.312C87.6702 26.392 88.1142 24.58 89.0022 22.876C89.8902 21.148 91.0662 19.768 92.5302 18.736C94.0182 17.68 95.5902 17.152 97.2462 17.152C97.7742 17.152 98.1222 17.26 98.2902 17.476C98.4822 17.668 98.6382 18.028 98.7582 18.556C99.2622 18.46 99.7902 18.412 100.342 18.412C101.518 18.412 102.106 18.832 102.106 19.672C102.106 20.176 101.926 21.376 101.566 23.272C101.014 26.032 100.738 27.952 100.738 29.032C100.738 29.392 100.822 29.68 100.99 29.896C101.182 30.112 101.422 30.22 101.71 30.22C102.166 30.22 102.718 29.932 103.366 29.356C104.014 28.756 104.89 27.796 105.994 26.476C106.282 26.14 106.606 25.972 106.966 25.972C107.278 25.972 107.518 26.116 107.686 26.404C107.878 26.692 107.974 27.088 107.974 27.592C107.974 28.552 107.746 29.296 107.29 29.824C106.306 31.048 105.262 32.08 104.158 32.92C103.054 33.76 101.986 34.18 100.954 34.18C100.162 34.18 99.4302 33.916 98.7582 33.388C98.1102 32.836 97.6182 32.092 97.2822 31.156C96.0342 33.172 94.4622 34.18 92.5662 34.18ZM93.8622 30.544C94.3902 30.544 94.8942 30.232 95.3742 29.608C95.8542 28.984 96.2022 28.156 96.4182 27.124L97.7502 20.5C96.7422 20.524 95.8062 20.908 94.9422 21.652C94.1022 22.372 93.4302 23.332 92.9262 24.532C92.4222 25.732 92.1702 27.004 92.1702 28.348C92.1702 29.092 92.3142 29.644 92.6022 30.004C92.9142 30.364 93.3342 30.544 93.8622 30.544ZM115.452 28.924C115.716 28.684 115.98 28.564 116.244 28.564C116.532 28.564 116.76 28.732 116.928 29.068C117.12 29.38 117.216 29.764 117.216 30.22C117.216 31.228 116.856 32.032 116.136 32.632C114.888 33.664 113.472 34.18 111.888 34.18C109.608 34.18 107.94 33.232 106.884 31.336C105.828 29.416 105.3 26.92 105.3 23.848C105.3 20.92 105.672 17.584 106.416 13.84C107.184 10.096 108.3 6.88 109.764 4.192C111.252 1.504 113.016 0.159998 115.056 0.159998C116.208 0.159998 117.108 0.699998 117.756 1.78C118.428 2.836 118.764 4.36 118.764 6.352C118.764 9.208 117.972 12.52 116.388 16.288C114.828 20.056 112.692 23.776 109.98 27.448C110.148 28.432 110.448 29.14 110.88 29.572C111.312 30.004 111.9 30.22 112.644 30.22C113.052 30.22 113.508 30.1 114.012 29.86C114.54 29.62 115.02 29.308 115.452 28.924ZM114.264 3.724C113.712 3.724 113.088 4.72 112.392 6.712C111.696 8.704 111.084 11.176 110.556 14.128C110.028 17.08 109.74 19.912 109.692 22.624C111.396 19.816 112.752 17.008 113.76 14.2C114.768 11.368 115.272 8.788 115.272 6.46C115.272 4.636 114.936 3.724 114.264 3.724ZM157.206 18.448C157.758 18.448 158.154 18.568 158.394 18.808C158.658 19.048 158.79 19.36 158.79 19.744C158.79 20.368 158.598 20.92 158.214 21.4C157.854 21.88 157.278 22.132 156.486 22.156C154.566 22.204 152.862 22.06 151.374 21.724C149.67 25.3 147.606 28.276 145.182 30.652C142.782 33.004 140.37 34.18 137.946 34.18C135.45 34.18 133.59 32.728 132.366 29.824C131.142 26.92 130.53 22.996 130.53 18.052C130.53 13.828 130.83 10.036 131.43 6.676C131.646 5.428 131.946 4.588 132.33 4.156C132.738 3.7 133.422 3.472 134.382 3.472C135.966 3.472 136.758 4.156 136.758 5.524C136.758 5.668 136.734 5.932 136.686 6.316C135.966 10.636 135.606 14.548 135.606 18.052C135.606 21.724 135.906 24.52 136.506 26.44C137.13 28.336 138.054 29.284 139.278 29.284C140.526 29.284 141.882 28.42 143.346 26.692C144.81 24.964 146.154 22.792 147.378 20.176C145.914 19.264 144.81 18.088 144.066 16.648C143.322 15.184 142.95 13.504 142.95 11.608C142.95 9.712 143.238 8.116 143.814 6.82C144.414 5.5 145.218 4.516 146.226 3.868C147.258 3.22 148.398 2.896 149.646 2.896C151.182 2.896 152.394 3.448 153.282 4.552C154.194 5.656 154.65 7.168 154.65 9.088C154.65 11.848 154.05 14.86 152.85 18.124C154.122 18.34 155.574 18.448 157.206 18.448ZM146.586 11.356C146.586 13.708 147.342 15.448 148.854 16.576C149.79 13.888 150.258 11.668 150.258 9.916C150.258 8.908 150.126 8.176 149.862 7.72C149.598 7.24 149.238 7 148.782 7C148.134 7 147.606 7.384 147.198 8.152C146.79 8.896 146.586 9.964 146.586 11.356ZM160.003 14.848C158.995 14.848 158.239 14.62 157.735 14.164C157.231 13.684 156.979 13.024 156.979 12.184C156.979 11.344 157.303 10.648 157.951 10.096C158.623 9.52 159.451 9.232 160.435 9.232C161.323 9.232 162.043 9.448 162.595 9.88C163.147 10.312 163.423 10.924 163.423 11.716C163.423 12.676 163.111 13.444 162.487 14.02C161.863 14.572 161.035 14.848 160.003 14.848ZM159.715 34.18C158.155 34.18 157.015 33.628 156.295 32.524C155.599 31.42 155.251 29.956 155.251 28.132C155.251 27.052 155.383 25.672 155.647 23.992C155.935 22.288 156.295 20.704 156.727 19.24C156.943 18.472 157.231 17.944 157.591 17.656C157.951 17.368 158.527 17.224 159.319 17.224C160.543 17.224 161.155 17.632 161.155 18.448C161.155 19.048 160.927 20.44 160.471 22.624C159.895 25.264 159.607 27.052 159.607 27.988C159.607 28.708 159.703 29.26 159.895 29.644C160.087 30.028 160.411 30.22 160.867 30.22C161.299 30.22 161.839 29.92 162.487 29.32C163.135 28.72 163.999 27.772 165.079 26.476C165.367 26.14 165.691 25.972 166.051 25.972C166.363 25.972 166.603 26.116 166.771 26.404C166.963 26.692 167.059 27.088 167.059 27.592C167.059 28.552 166.831 29.296 166.375 29.824C163.999 32.728 161.779 34.18 159.715 34.18ZM171.022 34.18C168.67 34.18 166.834 33.52 165.514 32.2C164.218 30.856 163.57 29.092 163.57 26.908C163.57 24.964 163.954 23.26 164.722 21.796C165.49 20.332 166.486 19.204 167.71 18.412C168.934 17.62 170.218 17.224 171.562 17.224C172.882 17.224 173.902 17.62 174.622 18.412C175.366 19.18 175.738 20.176 175.738 21.4C175.738 22.408 175.51 23.26 175.054 23.956C174.622 24.652 174.046 25 173.326 25C172.87 25 172.498 24.892 172.21 24.676C171.946 24.46 171.814 24.16 171.814 23.776C171.814 23.608 171.838 23.416 171.886 23.2C171.934 22.984 171.97 22.828 171.994 22.732C172.114 22.372 172.174 22.036 172.174 21.724C172.174 21.412 172.09 21.172 171.922 21.004C171.778 20.836 171.562 20.752 171.274 20.752C170.722 20.752 170.206 21.004 169.726 21.508C169.246 21.988 168.862 22.648 168.574 23.488C168.286 24.328 168.142 25.252 168.142 26.26C168.142 29.044 169.354 30.436 171.778 30.436C172.762 30.436 173.818 30.112 174.946 29.464C176.098 28.792 177.226 27.796 178.33 26.476C178.618 26.14 178.942 25.972 179.302 25.972C179.614 25.972 179.854 26.116 180.022 26.404C180.214 26.692 180.31 27.088 180.31 27.592C180.31 28.504 180.082 29.248 179.626 29.824C178.498 31.216 177.142 32.296 175.558 33.064C173.998 33.808 172.486 34.18 171.022 34.18ZM193.632 25.972C193.944 25.972 194.184 26.116 194.352 26.404C194.544 26.692 194.64 27.088 194.64 27.592C194.64 28.552 194.412 29.296 193.956 29.824C192.924 31.096 191.796 32.14 190.572 32.956C189.348 33.772 187.944 34.18 186.36 34.18C181.464 34.18 179.016 30.736 179.016 23.848C179.016 22.792 179.052 21.724 179.124 20.644H177.72C177 20.644 176.508 20.512 176.244 20.248C176.004 19.984 175.884 19.564 175.884 18.988C175.884 17.644 176.424 16.972 177.504 16.972H179.556C179.964 14.332 180.588 11.92 181.428 9.736C182.268 7.552 183.276 5.812 184.452 4.516C185.652 3.22 186.936 2.572 188.304 2.572C189.312 2.572 190.104 3.016 190.68 3.904C191.256 4.792 191.544 5.908 191.544 7.252C191.544 10.972 189.984 14.212 186.864 16.972H190.896C191.28 16.972 191.556 17.056 191.724 17.224C191.892 17.392 191.976 17.704 191.976 18.16C191.976 19.816 190.62 20.644 187.908 20.644H183.516C183.468 21.844 183.444 22.78 183.444 23.452C183.444 25.948 183.732 27.7 184.308 28.708C184.908 29.716 185.844 30.22 187.116 30.22C188.148 30.22 189.06 29.908 189.852 29.284C190.644 28.66 191.58 27.724 192.66 26.476C192.948 26.14 193.272 25.972 193.632 25.972ZM187.332 6.028C186.972 6.028 186.564 6.484 186.108 7.396C185.676 8.284 185.256 9.532 184.848 11.14C184.464 12.724 184.14 14.488 183.876 16.432C185.292 15.208 186.348 13.84 187.044 12.328C187.764 10.792 188.124 9.4 188.124 8.152C188.124 6.736 187.86 6.028 187.332 6.028ZM210.068 22.948C210.38 22.948 210.62 23.104 210.788 23.416C210.956 23.728 211.04 24.124 211.04 24.604C211.04 25.756 210.692 26.44 209.996 26.656C208.556 27.16 206.972 27.448 205.244 27.52C204.788 29.536 203.888 31.156 202.544 32.38C201.2 33.58 199.676 34.18 197.972 34.18C196.532 34.18 195.296 33.832 194.264 33.136C193.256 32.44 192.488 31.516 191.96 30.364C191.432 29.212 191.168 27.964 191.168 26.62C191.168 24.796 191.516 23.176 192.212 21.76C192.908 20.32 193.868 19.204 195.092 18.412C196.316 17.596 197.672 17.188 199.16 17.188C200.984 17.188 202.448 17.824 203.552 19.096C204.68 20.344 205.34 21.892 205.532 23.74C206.66 23.668 208.004 23.428 209.564 23.02C209.756 22.972 209.924 22.948 210.068 22.948ZM198.26 30.364C199.028 30.364 199.688 30.052 200.24 29.428C200.816 28.804 201.2 27.904 201.392 26.728C200.648 26.224 200.072 25.564 199.664 24.748C199.28 23.932 199.088 23.068 199.088 22.156C199.088 21.772 199.124 21.388 199.196 21.004H199.016C198.056 21.004 197.252 21.472 196.604 22.408C195.98 23.32 195.668 24.616 195.668 26.296C195.668 27.616 195.92 28.624 196.424 29.32C196.952 30.016 197.564 30.364 198.26 30.364ZM210.507 34.18C209.595 34.18 208.947 33.7 208.563 32.74C208.203 31.78 208.023 30.244 208.023 28.132C208.023 25.012 208.467 22.048 209.355 19.24C209.571 18.544 209.919 18.04 210.399 17.728C210.903 17.392 211.599 17.224 212.487 17.224C212.967 17.224 213.303 17.284 213.495 17.404C213.687 17.524 213.783 17.752 213.783 18.088C213.783 18.472 213.603 19.336 213.243 20.68C213.003 21.64 212.811 22.48 212.667 23.2C212.523 23.92 212.403 24.808 212.307 25.864C213.099 23.8 213.987 22.12 214.971 20.824C215.955 19.528 216.915 18.604 217.851 18.052C218.811 17.5 219.687 17.224 220.479 17.224C222.039 17.224 222.819 18.004 222.819 19.564C222.819 19.876 222.711 20.632 222.495 21.832C222.303 22.792 222.207 23.392 222.207 23.632C222.207 24.472 222.507 24.892 223.107 24.892C223.779 24.892 224.643 24.364 225.699 23.308C226.011 22.996 226.335 22.84 226.671 22.84C226.983 22.84 227.223 22.984 227.391 23.272C227.583 23.536 227.679 23.896 227.679 24.352C227.679 25.24 227.439 25.936 226.959 26.44C226.287 27.136 225.495 27.736 224.583 28.24C223.695 28.72 222.747 28.96 221.739 28.96C220.467 28.96 219.495 28.636 218.823 27.988C218.175 27.34 217.851 26.464 217.851 25.36C217.851 25 217.887 24.64 217.959 24.28C218.007 23.8 218.031 23.476 218.031 23.308C218.031 22.924 217.899 22.732 217.635 22.732C217.275 22.732 216.795 23.14 216.195 23.956C215.619 24.748 215.043 25.804 214.467 27.124C213.891 28.444 213.423 29.836 213.063 31.3C212.799 32.428 212.487 33.196 212.127 33.604C211.791 33.988 211.251 34.18 210.507 34.18ZM236.933 17.224C237.485 17.224 237.869 17.296 238.085 17.44C238.301 17.584 238.409 17.824 238.409 18.16C238.409 18.736 238.097 20.788 237.473 24.316C236.921 27.7 236.597 29.704 236.501 30.328C235.613 36.496 234.389 41.38 232.829 44.98C231.269 48.58 229.193 50.38 226.601 50.38C225.377 50.38 224.381 49.996 223.613 49.228C222.845 48.484 222.461 47.5 222.461 46.276C222.461 45.148 222.713 43.996 223.217 42.82C223.745 41.644 224.705 40.288 226.097 38.752C227.513 37.24 229.505 35.5 232.073 33.532L232.181 32.704C232.349 31.816 232.541 30.544 232.757 28.888C232.277 30.616 231.605 31.936 230.741 32.848C229.877 33.736 228.965 34.18 228.005 34.18C226.925 34.18 226.037 33.688 225.341 32.704C224.669 31.696 224.333 30.448 224.333 28.96C224.333 27.16 224.453 25.516 224.693 24.028C224.933 22.516 225.329 20.92 225.881 19.24C226.121 18.52 226.457 18.004 226.889 17.692C227.321 17.38 228.005 17.224 228.941 17.224C229.469 17.224 229.829 17.308 230.021 17.476C230.237 17.644 230.345 17.896 230.345 18.232C230.345 18.424 230.213 19.072 229.949 20.176C229.709 21.064 229.517 21.868 229.373 22.588C229.181 23.572 229.013 24.52 228.869 25.432C228.725 26.32 228.653 27.052 228.653 27.628C228.653 28.54 228.905 28.996 229.409 28.996C229.769 28.996 230.213 28.636 230.741 27.916C231.293 27.196 231.869 26.104 232.469 24.64C233.093 23.176 233.693 21.376 234.269 19.24C234.461 18.52 234.749 18.004 235.133 17.692C235.541 17.38 236.141 17.224 236.933 17.224ZM226.997 46.888C227.597 46.888 228.269 46.192 229.013 44.8C229.757 43.408 230.501 41.092 231.245 37.852C229.397 39.412 228.053 40.828 227.213 42.1C226.397 43.396 225.989 44.524 225.989 45.484C225.989 45.892 226.061 46.228 226.205 46.492C226.373 46.756 226.637 46.888 226.997 46.888Z" fill="#1A237E"/>
</svg>
