<svg width="28" height="30" viewBox="0 0 28 30" fill="none" xmlns="http://www.w3.org/2000/svg">
<circle cx="14" cy="16" r="14" fill="#DFF5E1"/>
<path d="M16.1786 23.144L14.9546 19.352C14.6986 18.584 14.4986 17.624 14.3546 16.472L14.2826 15.896H13.9466C13.7866 17.144 13.5466 18.288 13.2266 19.328L12.0986 23.144H8.69056L5.66656 13.712C4.97856 13.472 4.50656 13.184 4.25056 12.848L4.49056 11H10.1066L10.3466 12.848C10.0586 13.184 9.57056 13.472 8.88256 13.712L10.2746 19.832H10.6106C10.7866 18.984 10.9946 18.112 11.2346 17.216L12.8666 11.048H15.5546L17.1626 17.168L17.7626 19.832H18.0986C18.6906 17.128 19.0906 15.312 19.2986 14.384L19.4426 13.712C18.7226 13.456 18.2426 13.168 18.0026 12.848L18.2426 11H23.5706L23.8106 12.848C23.5386 13.216 23.0346 13.52 22.2986 13.76L19.2986 23.144H16.1786Z" fill="#5AD164"/>
</svg>
